<?xml version="1.0" standalone="no"?>
<!DOCTYPE svg PUBLIC "-//W3C//DTD SVG 20010904//EN"
 "http://www.w3.org/TR/2001/REC-SVG-20010904/DTD/svg10.dtd">
<svg version="1.0" xmlns="http://www.w3.org/2000/svg"
 width="82.000000pt" height="82.000000pt" viewBox="0 0 82.000000 82.000000"
 preserveAspectRatio="xMidYMid meet">
<metadata>
Created by potrace 1.11, written by Peter Selinger 2001-2013
</metadata>
<g transform="translate(0.000000,82.000000) scale(0.100000,-0.100000)"
fill="#000000" stroke="none">
<path d="M697 672 c-57 -61 -59 -64 -48 -75 6 -6 11 -7 11 -3 0 5 9 -3 21 -18
37 -47 113 -28 119 29 4 40 0 54 -21 65 -36 20 -65 21 -82 2z m74 -40 c9 -23
-11 -52 -36 -52 -20 0 -46 30 -39 43 24 42 61 46 75 9z"/>
<path d="M354 639 c-40 -14 -63 -56 -58 -105 4 -40 2 -45 -21 -54 -15 -6 -23
-15 -20 -20 4 -6 11 -8 16 -4 16 9 39 -16 39 -43 0 -22 2 -24 16 -12 9 7 24
13 34 14 10 1 33 14 50 29 l33 27 27 -26 c34 -33 50 -17 22 23 -24 35 -13 92
18 92 11 0 20 6 20 13 0 20 -12 28 -25 17 -8 -7 -21 -1 -43 20 -18 17 -35 31
-39 31 -32 6 -51 5 -69 -2z m60 -29 c6 0 19 -13 29 -29 28 -48 -9 -116 -39
-73 -8 12 -28 22 -47 24 -21 2 -33 9 -35 20 -4 22 47 71 66 63 7 -3 19 -5 26
-5z m-24 -119 c0 -5 -6 -8 -12 -7 -22 3 -39 17 -33 27 7 10 45 -7 45 -20z
m-13 -41 c15 0 16 -2 3 -10 -21 -14 -36 -12 -54 6 -25 24 -19 38 9 20 13 -9
32 -16 42 -16z"/>
<path d="M555 602 c-10 -11 9 -28 28 -26 12 1 25 3 30 3 4 1 7 8 7 16 0 11 -9
15 -30 13 -17 -1 -33 -4 -35 -6z"/>
<path d="M93 540 c-59 -24 -67 -107 -13 -135 16 -8 38 -15 48 -15 21 0 72 42
72 60 0 5 3 9 8 9 20 -3 33 2 27 11 -4 6 -11 8 -16 5 -5 -4 -17 7 -26 24 -10
16 -28 35 -41 40 -27 13 -30 13 -59 1z m73 -31 c18 -15 10 -70 -11 -85 -26
-19 -52 -17 -75 6 -25 25 -25 41 1 74 17 22 27 26 48 21 14 -4 31 -11 37 -16z"/>
<path d="M521 411 c-11 -7 -10 -12 6 -28 19 -19 19 -21 3 -53 -44 -84 18 -185
111 -183 105 2 160 122 93 202 -31 37 -80 52 -130 41 -31 -7 -40 -5 -53 11
-11 13 -21 16 -30 10z m184 -71 c22 -18 33 -71 23 -102 -24 -71 -134 -81 -169
-16 -27 51 -1 122 51 140 20 6 77 -7 95 -22z"/>
<path d="M278 350 c-10 -17 -25 -30 -36 -30 -31 0 -47 -26 -34 -55 24 -53 91
-18 76 39 -4 17 -1 31 10 41 17 17 21 35 9 35 -5 0 -16 -14 -25 -30z m-10 -67
c5 -17 -26 -29 -40 -15 -6 6 -7 15 -3 22 9 14 37 9 43 -7z"/>
</g>
</svg>
